<?xml version="1.0" encoding="utf-8" standalone="no"?>
<!DOCTYPE svg PUBLIC "-//W3C//DTD SVG 1.1//EN"
  "http://www.w3.org/Graphics/SVG/1.1/DTD/svg11.dtd">
<!-- Created with matplotlib (https://matplotlib.org/) -->
<svg height="345.6pt" version="1.1" viewBox="0 0 460.8 345.6" width="460.8pt" xmlns="http://www.w3.org/2000/svg" xmlns:xlink="http://www.w3.org/1999/xlink">
 <defs>
  <style type="text/css">
*{stroke-linecap:butt;stroke-linejoin:round;}
  </style>
 </defs>
 <g id="figure_1">
  <g id="patch_1">
   <path d="M 0 345.6 
L 460.8 345.6 
L 460.8 0 
L 0 0 
z
" style="fill:#ffffff;"/>
  </g>
  <g id="axes_1">
   <g id="patch_2">
    <path d="M 57.6 307.584 
L 414.72 307.584 
L 414.72 41.472 
L 57.6 41.472 
z
" style="fill:#ffffff;"/>
   </g>
   <g id="matplotlib.axis_1">
    <g id="xtick_1">
     <g id="line2d_1">
      <defs>
       <path d="M 0 0 
L 0 3.5 
" id="mcfa07cd524" style="stroke:#000000;stroke-width:0.8;"/>
      </defs>
      <g>
       <use style="stroke:#000000;stroke-width:0.8;" x="129.024" xlink:href="#mcfa07cd524" y="307.584"/>
      </g>
     </g>
     <g id="text_1">
      <!-- A -->
      <defs>
       <path d="M 34.1875 63.1875 
L 20.796875 26.90625 
L 47.609375 26.90625 
z
M 28.609375 72.90625 
L 39.796875 72.90625 
L 67.578125 0 
L 57.328125 0 
L 50.6875 18.703125 
L 17.828125 18.703125 
L 11.1875 0 
L 0.78125 0 
z
" id="DejaVuSans-65"/>
      </defs>
      <g transform="translate(123.893531 325.981656)scale(0.15 -0.15)">
       <use xlink:href="#DejaVuSans-65"/>
      </g>
     </g>
    </g>
    <g id="xtick_2">
     <g id="line2d_2">
      <g>
       <use style="stroke:#000000;stroke-width:0.8;" x="200.448" xlink:href="#mcfa07cd524" y="307.584"/>
      </g>
     </g>
     <g id="text_2">
      <!-- B -->
      <defs>
       <path d="M 19.671875 34.8125 
L 19.671875 8.109375 
L 35.5 8.109375 
Q 43.453125 8.109375 47.28125 11.40625 
Q 51.125 14.703125 51.125 21.484375 
Q 51.125 28.328125 47.28125 31.5625 
Q 43.453125 34.8125 35.5 34.8125 
z
M 19.671875 64.796875 
L 19.671875 42.828125 
L 34.28125 42.828125 
Q 41.5 42.828125 45.03125 45.53125 
Q 48.578125 48.25 48.578125 53.8125 
Q 48.578125 59.328125 45.03125 62.0625 
Q 41.5 64.796875 34.28125 64.796875 
z
M 9.8125 72.90625 
L 35.015625 72.90625 
Q 46.296875 72.90625 52.390625 68.21875 
Q 58.5 63.53125 58.5 54.890625 
Q 58.5 48.1875 55.375 44.234375 
Q 52.25 40.28125 46.1875 39.3125 
Q 53.46875 37.75 57.5 32.78125 
Q 61.53125 27.828125 61.53125 20.40625 
Q 61.53125 10.640625 54.890625 5.3125 
Q 48.25 0 35.984375 0 
L 9.8125 0 
z
" id="DejaVuSans-66"/>
      </defs>
      <g transform="translate(195.302297 325.981656)scale(0.15 -0.15)">
       <use xlink:href="#DejaVuSans-66"/>
      </g>
     </g>
    </g>
    <g id="xtick_3">
     <g id="line2d_3">
      <g>
       <use style="stroke:#000000;stroke-width:0.8;" x="271.872" xlink:href="#mcfa07cd524" y="307.584"/>
      </g>
     </g>
     <g id="text_3">
      <!-- C -->
      <defs>
       <path d="M 64.40625 67.28125 
L 64.40625 56.890625 
Q 59.421875 61.53125 53.78125 63.8125 
Q 48.140625 66.109375 41.796875 66.109375 
Q 29.296875 66.109375 22.65625 58.46875 
Q 16.015625 50.828125 16.015625 36.375 
Q 16.015625 21.96875 22.65625 14.328125 
Q 29.296875 6.6875 41.796875 6.6875 
Q 48.140625 6.6875 53.78125 8.984375 
Q 59.421875 11.28125 64.40625 15.921875 
L 64.40625 5.609375 
Q 59.234375 2.09375 53.4375 0.328125 
Q 47.65625 -1.421875 41.21875 -1.421875 
Q 24.65625 -1.421875 15.125 8.703125 
Q 5.609375 18.84375 5.609375 36.375 
Q 5.609375 53.953125 15.125 64.078125 
Q 24.65625 74.21875 41.21875 74.21875 
Q 47.75 74.21875 53.53125 72.484375 
Q 59.328125 70.75 64.40625 67.28125 
z
" id="DejaVuSans-67"/>
      </defs>
      <g transform="translate(266.634891 325.981656)scale(0.15 -0.15)">
       <use xlink:href="#DejaVuSans-67"/>
      </g>
     </g>
    </g>
    <g id="xtick_4">
     <g id="line2d_4">
      <g>
       <use style="stroke:#000000;stroke-width:0.8;" x="307.584" xlink:href="#mcfa07cd524" y="307.584"/>
      </g>
     </g>
     <g id="text_4">
      <!-- D -->
      <defs>
       <path d="M 19.671875 64.796875 
L 19.671875 8.109375 
L 31.59375 8.109375 
Q 46.6875 8.109375 53.6875 14.9375 
Q 60.6875 21.78125 60.6875 36.53125 
Q 60.6875 51.171875 53.6875 57.984375 
Q 46.6875 64.796875 31.59375 64.796875 
z
M 9.8125 72.90625 
L 30.078125 72.90625 
Q 51.265625 72.90625 61.171875 64.09375 
Q 71.09375 55.28125 71.09375 36.53125 
Q 71.09375 17.671875 61.125 8.828125 
Q 51.171875 0 30.078125 0 
L 9.8125 0 
z
" id="DejaVuSans-68"/>
      </defs>
      <g transform="translate(301.809 325.981656)scale(0.15 -0.15)">
       <use xlink:href="#DejaVuSans-68"/>
      </g>
     </g>
    </g>
    <g id="xtick_5">
     <g id="line2d_5">
      <g>
       <use style="stroke:#000000;stroke-width:0.8;" x="343.296" xlink:href="#mcfa07cd524" y="307.584"/>
      </g>
     </g>
     <g id="text_5">
      <!-- E -->
      <defs>
       <path d="M 9.8125 72.90625 
L 55.90625 72.90625 
L 55.90625 64.59375 
L 19.671875 64.59375 
L 19.671875 43.015625 
L 54.390625 43.015625 
L 54.390625 34.71875 
L 19.671875 34.71875 
L 19.671875 8.296875 
L 56.78125 8.296875 
L 56.78125 0 
L 9.8125 0 
z
" id="DejaVuSans-69"/>
      </defs>
      <g transform="translate(338.556938 325.981656)scale(0.15 -0.15)">
       <use xlink:href="#DejaVuSans-69"/>
      </g>
     </g>
    </g>
   </g>
   <g id="matplotlib.axis_2">
    <g id="ytick_1">
     <g id="line2d_6">
      <defs>
       <path d="M 0 0 
L -3.5 0 
" id="m26ba419a32" style="stroke:#000000;stroke-width:0.8;"/>
      </defs>
      <g>
       <use style="stroke:#000000;stroke-width:0.8;" x="57.6" xlink:href="#m26ba419a32" y="307.584"/>
      </g>
     </g>
     <g id="text_6">
      <!-- −10 -->
      <defs>
       <path d="M 10.59375 35.5 
L 73.1875 35.5 
L 73.1875 27.203125 
L 10.59375 27.203125 
z
" id="DejaVuSans-8722"/>
       <path d="M 12.40625 8.296875 
L 28.515625 8.296875 
L 28.515625 63.921875 
L 10.984375 60.40625 
L 10.984375 69.390625 
L 28.421875 72.90625 
L 38.28125 72.90625 
L 38.28125 8.296875 
L 54.390625 8.296875 
L 54.390625 0 
L 12.40625 0 
z
" id="DejaVuSans-49"/>
       <path d="M 31.78125 66.40625 
Q 24.171875 66.40625 20.328125 58.90625 
Q 16.5 51.421875 16.5 36.375 
Q 16.5 21.390625 20.328125 13.890625 
Q 24.171875 6.390625 31.78125 6.390625 
Q 39.453125 6.390625 43.28125 13.890625 
Q 47.125 21.390625 47.125 36.375 
Q 47.125 51.421875 43.28125 58.90625 
Q 39.453125 66.40625 31.78125 66.40625 
z
M 31.78125 74.21875 
Q 44.046875 74.21875 50.515625 64.515625 
Q 56.984375 54.828125 56.984375 36.375 
Q 56.984375 17.96875 50.515625 8.265625 
Q 44.046875 -1.421875 31.78125 -1.421875 
Q 19.53125 -1.421875 13.0625 8.265625 
Q 6.59375 17.96875 6.59375 36.375 
Q 6.59375 54.828125 13.0625 64.515625 
Q 19.53125 74.21875 31.78125 74.21875 
z
" id="DejaVuSans-48"/>
      </defs>
      <g transform="translate(29.495313 311.383219)scale(0.1 -0.1)">
       <use xlink:href="#DejaVuSans-8722"/>
       <use x="83.789062" xlink:href="#DejaVuSans-49"/>
       <use x="147.412109" xlink:href="#DejaVuSans-48"/>
      </g>
     </g>
    </g>
    <g id="ytick_2">
     <g id="line2d_7">
      <g>
       <use style="stroke:#000000;stroke-width:0.8;" x="57.6" xlink:href="#m26ba419a32" y="241.056"/>
      </g>
     </g>
     <g id="text_7">
      <!-- −5 -->
      <defs>
       <path d="M 10.796875 72.90625 
L 49.515625 72.90625 
L 49.515625 64.59375 
L 19.828125 64.59375 
L 19.828125 46.734375 
Q 21.96875 47.46875 24.109375 47.828125 
Q 26.265625 48.1875 28.421875 48.1875 
Q 40.625 48.1875 47.75 41.5 
Q 54.890625 34.8125 54.890625 23.390625 
Q 54.890625 11.625 47.5625 5.09375 
Q 40.234375 -1.421875 26.90625 -1.421875 
Q 22.3125 -1.421875 17.546875 -0.640625 
Q 12.796875 0.140625 7.71875 1.703125 
L 7.71875 11.625 
Q 12.109375 9.234375 16.796875 8.0625 
Q 21.484375 6.890625 26.703125 6.890625 
Q 35.15625 6.890625 40.078125 11.328125 
Q 45.015625 15.765625 45.015625 23.390625 
Q 45.015625 31 40.078125 35.4375 
Q 35.15625 39.890625 26.703125 39.890625 
Q 22.75 39.890625 18.8125 39.015625 
Q 14.890625 38.140625 10.796875 36.28125 
z
" id="DejaVuSans-53"/>
      </defs>
      <g transform="translate(35.857813 244.855219)scale(0.1 -0.1)">
       <use xlink:href="#DejaVuSans-8722"/>
       <use x="83.789062" xlink:href="#DejaVuSans-53"/>
      </g>
     </g>
    </g>
    <g id="ytick_3">
     <g id="line2d_8">
      <g>
       <use style="stroke:#000000;stroke-width:0.8;" x="57.6" xlink:href="#m26ba419a32" y="174.528"/>
      </g>
     </g>
     <g id="text_8">
      <!-- 0 -->
      <g transform="translate(44.2375 178.327219)scale(0.1 -0.1)">
       <use xlink:href="#DejaVuSans-48"/>
      </g>
     </g>
    </g>
    <g id="ytick_4">
     <g id="line2d_9">
      <g>
       <use style="stroke:#000000;stroke-width:0.8;" x="57.6" xlink:href="#m26ba419a32" y="108"/>
      </g>
     </g>
     <g id="text_9">
      <!-- 5 -->
      <g transform="translate(44.2375 111.799219)scale(0.1 -0.1)">
       <use xlink:href="#DejaVuSans-53"/>
      </g>
     </g>
    </g>
    <g id="ytick_5">
     <g id="line2d_10">
      <g>
       <use style="stroke:#000000;stroke-width:0.8;" x="57.6" xlink:href="#m26ba419a32" y="41.472"/>
      </g>
     </g>
     <g id="text_10">
      <!-- 10 -->
      <g transform="translate(37.875 45.271219)scale(0.1 -0.1)">
       <use xlink:href="#DejaVuSans-49"/>
       <use x="63.623047" xlink:href="#DejaVuSans-48"/>
      </g>
     </g>
    </g>
    <g id="text_11">
     <!-- Energy(eV) -->
     <defs>
      <path d="M 54.890625 33.015625 
L 54.890625 0 
L 45.90625 0 
L 45.90625 32.71875 
Q 45.90625 40.484375 42.875 44.328125 
Q 39.84375 48.1875 33.796875 48.1875 
Q 26.515625 48.1875 22.3125 43.546875 
Q 18.109375 38.921875 18.109375 30.90625 
L 18.109375 0 
L 9.078125 0 
L 9.078125 54.6875 
L 18.109375 54.6875 
L 18.109375 46.1875 
Q 21.34375 51.125 25.703125 53.5625 
Q 30.078125 56 35.796875 56 
Q 45.21875 56 50.046875 50.171875 
Q 54.890625 44.34375 54.890625 33.015625 
z
" id="DejaVuSans-110"/>
      <path d="M 56.203125 29.59375 
L 56.203125 25.203125 
L 14.890625 25.203125 
Q 15.484375 15.921875 20.484375 11.0625 
Q 25.484375 6.203125 34.421875 6.203125 
Q 39.59375 6.203125 44.453125 7.46875 
Q 49.3125 8.734375 54.109375 11.28125 
L 54.109375 2.78125 
Q 49.265625 0.734375 44.1875 -0.34375 
Q 39.109375 -1.421875 33.890625 -1.421875 
Q 20.796875 -1.421875 13.15625 6.1875 
Q 5.515625 13.8125 5.515625 26.8125 
Q 5.515625 40.234375 12.765625 48.109375 
Q 20.015625 56 32.328125 56 
Q 43.359375 56 49.78125 48.890625 
Q 56.203125 41.796875 56.203125 29.59375 
z
M 47.21875 32.234375 
Q 47.125 39.59375 43.09375 43.984375 
Q 39.0625 48.390625 32.421875 48.390625 
Q 24.90625 48.390625 20.390625 44.140625 
Q 15.875 39.890625 15.1875 32.171875 
z
" id="DejaVuSans-101"/>
      <path d="M 41.109375 46.296875 
Q 39.59375 47.171875 37.8125 47.578125 
Q 36.03125 48 33.890625 48 
Q 26.265625 48 22.1875 43.046875 
Q 18.109375 38.09375 18.109375 28.8125 
L 18.109375 0 
L 9.078125 0 
L 9.078125 54.6875 
L 18.109375 54.6875 
L 18.109375 46.1875 
Q 20.953125 51.171875 25.484375 53.578125 
Q 30.03125 56 36.53125 56 
Q 37.453125 56 38.578125 55.875 
Q 39.703125 55.765625 41.0625 55.515625 
z
" id="DejaVuSans-114"/>
      <path d="M 45.40625 27.984375 
Q 45.40625 37.75 41.375 43.109375 
Q 37.359375 48.484375 30.078125 48.484375 
Q 22.859375 48.484375 18.828125 43.109375 
Q 14.796875 37.75 14.796875 27.984375 
Q 14.796875 18.265625 18.828125 12.890625 
Q 22.859375 7.515625 30.078125 7.515625 
Q 37.359375 7.515625 41.375 12.890625 
Q 45.40625 18.265625 45.40625 27.984375 
z
M 54.390625 6.78125 
Q 54.390625 -7.171875 48.1875 -13.984375 
Q 42 -20.796875 29.203125 -20.796875 
Q 24.46875 -20.796875 20.265625 -20.09375 
Q 16.0625 -19.390625 12.109375 -17.921875 
L 12.109375 -9.1875 
Q 16.0625 -11.328125 19.921875 -12.34375 
Q 23.78125 -13.375 27.78125 -13.375 
Q 36.625 -13.375 41.015625 -8.765625 
Q 45.40625 -4.15625 45.40625 5.171875 
L 45.40625 9.625 
Q 42.625 4.78125 38.28125 2.390625 
Q 33.9375 0 27.875 0 
Q 17.828125 0 11.671875 7.65625 
Q 5.515625 15.328125 5.515625 27.984375 
Q 5.515625 40.671875 11.671875 48.328125 
Q 17.828125 56 27.875 56 
Q 33.9375 56 38.28125 53.609375 
Q 42.625 51.21875 45.40625 46.390625 
L 45.40625 54.6875 
L 54.390625 54.6875 
z
" id="DejaVuSans-103"/>
      <path d="M 32.171875 -5.078125 
Q 28.375 -14.84375 24.75 -17.8125 
Q 21.140625 -20.796875 15.09375 -20.796875 
L 7.90625 -20.796875 
L 7.90625 -13.28125 
L 13.1875 -13.28125 
Q 16.890625 -13.28125 18.9375 -11.515625 
Q 21 -9.765625 23.484375 -3.21875 
L 25.09375 0.875 
L 2.984375 54.6875 
L 12.5 54.6875 
L 29.59375 11.921875 
L 46.6875 54.6875 
L 56.203125 54.6875 
z
" id="DejaVuSans-121"/>
      <path d="M 31 75.875 
Q 24.46875 64.65625 21.28125 53.65625 
Q 18.109375 42.671875 18.109375 31.390625 
Q 18.109375 20.125 21.3125 9.0625 
Q 24.515625 -2 31 -13.1875 
L 23.1875 -13.1875 
Q 15.875 -1.703125 12.234375 9.375 
Q 8.59375 20.453125 8.59375 31.390625 
Q 8.59375 42.28125 12.203125 53.3125 
Q 15.828125 64.359375 23.1875 75.875 
z
" id="DejaVuSans-40"/>
      <path d="M 28.609375 0 
L 0.78125 72.90625 
L 11.078125 72.90625 
L 34.1875 11.53125 
L 57.328125 72.90625 
L 67.578125 72.90625 
L 39.796875 0 
z
" id="DejaVuSans-86"/>
      <path d="M 8.015625 75.875 
L 15.828125 75.875 
Q 23.140625 64.359375 26.78125 53.3125 
Q 30.421875 42.28125 30.421875 31.390625 
Q 30.421875 20.453125 26.78125 9.375 
Q 23.140625 -1.703125 15.828125 -13.1875 
L 8.015625 -13.1875 
Q 14.5 -2 17.703125 9.0625 
Q 20.90625 20.125 20.90625 31.390625 
Q 20.90625 42.671875 17.703125 53.65625 
Q 14.5 64.65625 8.015625 75.875 
z
" id="DejaVuSans-41"/>
     </defs>
     <g transform="translate(22.375781 216.515109)rotate(-90)scale(0.15 -0.15)">
      <use xlink:href="#DejaVuSans-69"/>
      <use x="63.183594" xlink:href="#DejaVuSans-110"/>
      <use x="126.5625" xlink:href="#DejaVuSans-101"/>
      <use x="188.085938" xlink:href="#DejaVuSans-114"/>
      <use x="229.183594" xlink:href="#DejaVuSans-103"/>
      <use x="292.660156" xlink:href="#DejaVuSans-121"/>
      <use x="351.839844" xlink:href="#DejaVuSans-40"/>
      <use x="390.853516" xlink:href="#DejaVuSans-101"/>
      <use x="452.376953" xlink:href="#DejaVuSans-86"/>
      <use x="520.785156" xlink:href="#DejaVuSans-41"/>
     </g>
    </g>
   </g>
   <g id="line2d_11">
    <path clip-path="url(#pfb5493c948)" style="fill:none;stroke:#0000ff;stroke-linecap:square;stroke-width:1.5;"/>
   </g>
   <g id="line2d_12">
    <path clip-path="url(#pfb5493c948)" style="fill:none;stroke:#0000ff;stroke-linecap:square;stroke-width:1.5;"/>
   </g>
   <g id="line2d_13">
    <path clip-path="url(#pfb5493c948)" style="fill:none;stroke:#0000ff;stroke-linecap:square;stroke-width:1.5;"/>
   </g>
   <g id="line2d_14">
    <path clip-path="url(#pfb5493c948)" style="fill:none;stroke:#0000ff;stroke-linecap:square;stroke-width:1.5;"/>
   </g>
   <g id="line2d_15">
    <path clip-path="url(#pfb5493c948)" style="fill:none;stroke:#0000ff;stroke-linecap:square;stroke-width:1.5;"/>
   </g>
   <g id="line2d_16">
    <path clip-path="url(#pfb5493c948)" style="fill:none;stroke:#0000ff;stroke-linecap:square;stroke-width:1.5;"/>
   </g>
   <g id="line2d_17">
    <path clip-path="url(#pfb5493c948)" style="fill:none;stroke:#0000ff;stroke-linecap:square;stroke-width:1.5;"/>
   </g>
   <g id="line2d_18">
    <path clip-path="url(#pfb5493c948)" style="fill:none;stroke:#0000ff;stroke-linecap:square;stroke-width:1.5;"/>
   </g>
   <g id="line2d_19">
    <path clip-path="url(#pfb5493c948)" style="fill:none;stroke:#0000ff;stroke-linecap:square;stroke-width:1.5;"/>
   </g>
   <g id="line2d_20">
    <path clip-path="url(#pfb5493c948)" style="fill:none;stroke:#0000ff;stroke-linecap:square;stroke-width:1.5;"/>
   </g>
   <g id="line2d_21">
    <path clip-path="url(#pfb5493c948)" style="fill:none;stroke:#0000ff;stroke-linecap:square;stroke-width:1.5;"/>
   </g>
   <g id="line2d_22">
    <path clip-path="url(#pfb5493c948)" style="fill:none;stroke:#0000ff;stroke-linecap:square;stroke-width:1.5;"/>
   </g>
   <g id="line2d_23">
    <path clip-path="url(#pfb5493c948)" style="fill:none;stroke:#0000ff;stroke-linecap:square;stroke-width:1.5;"/>
   </g>
   <g id="line2d_24">
    <path clip-path="url(#pfb5493c948)" style="fill:none;stroke:#0000ff;stroke-linecap:square;stroke-width:1.5;"/>
   </g>
   <g id="line2d_25">
    <path clip-path="url(#pfb5493c948)" style="fill:none;stroke:#0000ff;stroke-linecap:square;stroke-width:1.5;"/>
   </g>
   <g id="line2d_26">
    <path clip-path="url(#pfb5493c948)" d="M 312.910077 346.6 
L 315.344218 345.737143 
L 316.353233 346.6 
" style="fill:none;stroke:#0000ff;stroke-linecap:square;stroke-width:1.5;"/>
   </g>
   <g id="line2d_27">
    <path clip-path="url(#pfb5493c948)" d="M 57.6 343.636854 
L 68.127898 344.492537 
L 74.835211 346.6 
M 193.740093 346.6 
L 201.49079 341.381155 
L 211.51872 336.817202 
L 221.54665 336.354832 
L 231.970982 336.820129 
L 242.391744 340.62553 
L 250.710922 346.6 
M 295.569182 346.6 
L 304.919885 341.616531 
L 315.344218 342.338892 
L 325.764979 335.171831 
L 336.185741 339.34633 
L 346.610074 342.422186 
L 357.030835 343.574184 
L 367.451597 343.695265 
L 377.872358 343.636854 
L 390.157286 345.950298 
L 391.686441 346.6 
" style="fill:none;stroke:#0000ff;stroke-linecap:square;stroke-width:1.5;"/>
   </g>
   <g id="line2d_28">
    <path clip-path="url(#pfb5493c948)" d="M 57.6 343.636854 
L 68.127898 344.107872 
L 78.655795 344.403789 
L 89.183693 342.306959 
L 99.71159 343.163041 
L 109.094892 346.6 
M 147.621978 346.6 
L 151.351142 345.042857 
L 161.379072 341.462453 
L 171.407002 338.652177 
L 181.434931 336.64822 
L 191.462861 335.438608 
L 201.49079 335.161453 
L 211.51872 335.875564 
L 221.54665 336.354832 
L 231.970982 336.820129 
L 242.391744 337.711338 
L 252.812506 338.504751 
L 263.233267 338.965524 
L 273.6576 338.964991 
L 284.078362 338.456052 
L 294.499123 337.520935 
L 304.919885 336.414042 
L 315.344218 335.516446 
L 325.764979 335.171831 
L 336.185741 339.346197 
L 346.610074 342.422186 
L 357.030835 343.574184 
L 367.451597 343.695265 
L 377.872358 343.636854 
L 390.157286 342.728614 
L 402.438643 341.047717 
L 414.72 339.797124 
" style="fill:none;stroke:#0000ff;stroke-linecap:square;stroke-width:1.5;"/>
   </g>
   <g id="line2d_29">
    <path clip-path="url(#pfb5493c948)" d="M 57.6 331.529423 
L 68.127898 336.523946 
L 78.655795 338.266847 
L 89.183693 340.059244 
L 99.71159 340.342121 
L 110.235917 344.39208 
L 114.466636 346.6 
M 147.621978 346.6 
L 151.351142 345.042857 
L 161.379072 341.462453 
L 171.407002 338.652177 
L 181.434931 336.64822 
L 191.462861 335.438608 
L 201.49079 335.161453 
L 211.51872 335.875564 
L 221.54665 336.354832 
L 231.970982 334.655308 
L 242.391744 337.711338 
L 252.812506 338.504751 
L 263.233267 338.965524 
L 273.6576 338.964858 
L 284.078362 338.456052 
L 294.499123 337.520802 
L 304.919885 336.414042 
L 315.344218 335.516446 
L 325.764979 334.426717 
L 336.185741 330.465374 
L 346.610074 328.76718 
L 357.030835 329.837483 
L 367.451597 331.060534 
L 377.872358 331.529423 
L 390.157286 334.775191 
L 402.438643 334.758692 
L 414.72 334.413013 
" style="fill:none;stroke:#0000ff;stroke-linecap:square;stroke-width:1.5;"/>
   </g>
   <g id="line2d_30">
    <path clip-path="url(#pfb5493c948)" d="M 57.6 331.529423 
L 68.127898 326.406767 
L 78.655795 325.972339 
L 89.183693 329.413833 
L 99.71159 332.635118 
L 110.235917 329.584277 
L 120.763814 324.92266 
L 131.291712 322.677207 
L 141.319642 318.991955 
L 151.351142 310.523872 
L 161.379072 312.229118 
L 171.407002 317.907549 
L 181.434931 323.28381 
L 191.462861 327.821019 
L 201.49079 330.890754 
L 211.51872 332.775359 
L 221.54665 332.205481 
L 231.970982 333.969138 
L 242.391744 330.184094 
L 252.812506 328.500802 
L 263.233267 326.6947 
L 273.6576 324.824997 
L 284.078362 322.915777 
L 294.499123 320.994448 
L 304.919885 324.261771 
L 315.344218 325.702236 
L 325.764979 334.426584 
L 336.185741 330.465374 
L 346.610074 328.76718 
L 357.030835 329.837483 
L 367.451597 331.060534 
L 377.872358 331.529423 
L 390.157286 327.45751 
L 402.438643 327.7505 
L 414.72 329.29528 
" style="fill:none;stroke:#0000ff;stroke-linecap:square;stroke-width:1.5;"/>
   </g>
   <g id="line2d_31">
    <path clip-path="url(#pfb5493c948)" d="M 57.6 312.698407 
L 68.127898 312.436286 
L 78.655795 310.573502 
L 89.183693 307.20346 
L 99.71159 303.538565 
L 110.235917 301.481254 
L 120.763814 301.069711 
L 131.291712 301.077162 
L 141.319642 302.74329 
L 151.351142 306.882529 
L 161.379072 312.229118 
L 171.407002 317.907549 
L 181.434931 323.28381 
L 191.462861 327.821019 
L 201.49079 330.890754 
L 211.51872 332.033572 
L 221.54665 332.205348 
L 231.970982 331.577988 
L 242.391744 330.184094 
L 252.812506 328.500802 
L 263.233267 326.694567 
L 273.6576 324.824997 
L 284.078362 322.915777 
L 294.499123 320.994448 
L 304.919885 319.165327 
L 315.344218 319.998125 
L 325.764979 317.158311 
L 336.185741 319.342026 
L 346.610074 319.660828 
L 357.030835 316.779367 
L 367.451597 313.877017 
L 377.872358 312.698407 
L 390.157286 312.61019 
L 402.438643 310.231149 
L 414.72 309.145412 
" style="fill:none;stroke:#0000ff;stroke-linecap:square;stroke-width:1.5;"/>
   </g>
   <g id="line2d_32">
    <path clip-path="url(#pfb5493c948)" d="M 57.6 312.698273 
L 68.127898 310.506575 
L 78.655795 303.909792 
L 89.183693 295.336461 
L 99.71159 291.863966 
L 110.235917 295.136212 
L 120.763814 299.051119 
L 131.291712 301.077162 
L 141.319642 302.74329 
L 151.351142 306.882529 
L 161.379072 302.494076 
L 171.407002 309.558285 
L 181.434931 317.819998 
L 191.462861 324.905496 
L 201.49079 330.223079 
L 211.51872 332.033572 
L 221.54665 332.205348 
L 231.970982 331.577988 
L 242.391744 327.592961 
L 252.812506 318.903473 
L 263.233267 310.265478 
L 273.6576 306.324758 
L 284.078362 310.407049 
L 294.499123 318.319756 
L 304.919885 319.165194 
L 315.344218 317.726992 
L 325.764979 317.158311 
L 336.185741 319.342026 
L 346.610074 319.660828 
L 357.030835 316.779367 
L 367.451597 313.877017 
L 377.872358 312.698273 
L 390.157286 312.072245 
L 402.438643 309.163907 
L 414.72 305.295437 
" style="fill:none;stroke:#0000ff;stroke-linecap:square;stroke-width:1.5;"/>
   </g>
   <g id="line2d_33">
    <path clip-path="url(#pfb5493c948)" d="M 57.6 275.342136 
L 68.127898 280.710414 
L 78.655795 285.392654 
L 89.183693 288.749524 
L 99.71159 288.74846 
L 110.235917 287.708893 
L 120.763814 285.176305 
L 131.291712 283.931699 
L 141.319642 285.058151 
L 151.351142 291.306062 
L 161.379072 297.481058 
L 171.407002 288.693907 
L 181.434931 279.561209 
L 191.462861 282.673522 
L 201.49079 288.659844 
L 211.51872 293.619906 
L 221.54665 295.6695 
L 231.970982 293.475806 
L 242.391744 288.302323 
L 252.812506 282.256923 
L 263.233267 276.771291 
L 273.6576 282.893996 
L 284.078362 294.754208 
L 294.499123 305.853873 
L 304.919885 316.174495 
L 315.344218 317.726992 
L 325.764979 310.051257 
L 336.185741 305.331495 
L 346.610074 296.616061 
L 357.030835 286.684495 
L 367.451597 277.993543 
L 377.872358 275.342136 
L 390.157286 280.967611 
L 402.438643 286.536803 
L 414.72 290.768649 
" style="fill:none;stroke:#0000ff;stroke-linecap:square;stroke-width:1.5;"/>
   </g>
   <g id="line2d_34">
    <path clip-path="url(#pfb5493c948)" d="M 57.6 275.342136 
L 68.127898 277.403573 
L 78.655795 282.662744 
L 89.183693 286.820877 
L 99.71159 288.159288 
L 110.235917 284.877994 
L 120.763814 283.897105 
L 131.291712 283.931699 
L 141.319642 282.602603 
L 151.351142 279.216594 
L 161.379072 274.457979 
L 171.407002 269.734624 
L 181.434931 274.535285 
L 191.462861 268.410717 
L 201.49079 261.09929 
L 211.51872 256.229041 
L 221.54665 254.519404 
L 231.970982 256.050214 
L 242.391744 260.310401 
L 252.812506 266.296457 
L 263.233267 271.912485 
L 273.6576 273.202463 
L 284.078362 273.431585 
L 294.499123 278.772719 
L 304.919885 287.99177 
L 315.344218 298.91793 
L 325.764979 310.051257 
L 336.185741 305.331362 
L 346.610074 296.616061 
L 357.030835 286.684362 
L 367.451597 277.99341 
L 377.872358 275.342136 
L 390.157286 276.531657 
L 402.438643 285.26532 
L 414.72 288.948576 
" style="fill:none;stroke:#0000ff;stroke-linecap:square;stroke-width:1.5;"/>
   </g>
   <g id="line2d_35">
    <path clip-path="url(#pfb5493c948)" d="M 57.6 273.525123 
L 68.127898 273.868541 
L 78.655795 275.064847 
L 89.183693 276.351632 
L 99.71159 278.74837 
L 110.235917 281.39166 
L 120.763814 282.63906 
L 131.291712 282.719293 
L 141.319642 282.602603 
L 151.351142 279.216594 
L 161.379072 274.457979 
L 171.407002 268.743357 
L 181.434931 262.889292 
L 191.462861 258.41249 
L 201.49079 255.973307 
L 211.51872 254.850182 
L 221.54665 254.519404 
L 231.970982 255.016102 
L 242.391744 256.429423 
L 252.812506 258.55965 
L 263.233267 270.297318 
L 273.6576 272.468393 
L 284.078362 266.884165 
L 294.499123 269.719323 
L 304.919885 272.343586 
L 315.344218 274.378545 
L 325.764979 275.180473 
L 336.185741 275.182735 
L 346.610074 275.154926 
L 357.030835 274.974502 
L 367.451597 274.314678 
L 377.872358 273.525123 
L 390.157286 275.100773 
L 402.438643 276.380372 
L 414.72 276.869619 
" style="fill:none;stroke:#0000ff;stroke-linecap:square;stroke-width:1.5;"/>
   </g>
   <g id="line2d_36">
    <path clip-path="url(#pfb5493c948)" d="M 57.6 273.52499 
L 68.127898 270.73933 
L 78.655795 266.625771 
L 89.183693 265.582079 
L 99.71159 263.316668 
L 110.235917 255.993 
L 120.763814 247.003603 
L 131.291712 243.102268 
L 141.319642 250.833886 
L 151.351142 258.222752 
L 161.379072 264.159179 
L 171.407002 268.743357 
L 181.434931 262.889292 
L 191.462861 258.41249 
L 201.49079 255.973307 
L 211.51872 254.850182 
L 221.54665 254.519138 
L 231.970982 255.015969 
L 242.391744 256.42929 
L 252.812506 258.559517 
L 263.233267 261.157036 
L 273.6576 263.989931 
L 284.078362 266.884032 
L 294.499123 269.71919 
L 304.919885 272.34332 
L 315.344218 274.378412 
L 325.764979 275.18034 
L 336.185741 275.182602 
L 346.610074 275.15466 
L 357.030835 274.974369 
L 367.451597 274.314545 
L 377.872358 273.52499 
L 390.157286 273.863884 
L 402.438643 274.656632 
L 414.72 274.982752 
" style="fill:none;stroke:#0000ff;stroke-linecap:square;stroke-width:1.5;"/>
   </g>
   <g id="line2d_37">
    <path clip-path="url(#pfb5493c948)" d="M 57.6 265.13887 
L 68.127898 263.800327 
L 78.655795 264.126181 
L 89.183693 262.14165 
L 99.71159 257.136749 
L 110.235917 251.773661 
L 120.763814 246.534714 
L 131.291712 242.360747 
L 141.319642 244.59356 
L 151.351142 247.440825 
L 161.379072 248.903909 
L 171.407002 248.792541 
L 181.434931 246.734165 
L 191.462861 241.728997 
L 201.49079 233.668199 
L 211.51872 223.877007 
L 221.54665 214.775045 
L 231.970982 228.511879 
L 242.391744 243.042393 
L 252.812506 256.997572 
L 263.233267 261.156903 
L 273.6576 263.989798 
L 284.078362 264.462014 
L 294.499123 251.677594 
L 304.919885 246.527529 
L 315.344218 250.249238 
L 325.764979 251.539748 
L 336.185741 253.188445 
L 346.610074 257.31877 
L 357.030835 262.188353 
L 367.451597 265.507169 
L 377.872358 265.13887 
L 390.157286 265.810004 
L 402.438643 266.908914 
L 414.72 267.371683 
" style="fill:none;stroke:#0000ff;stroke-linecap:square;stroke-width:1.5;"/>
   </g>
   <g id="line2d_38">
    <path clip-path="url(#pfb5493c948)" d="M 57.6 265.138737 
L 68.127898 261.307522 
L 78.655795 253.474116 
L 89.183693 243.986026 
L 99.71159 239.311636 
L 110.235917 239.063353 
L 120.763814 240.551718 
L 131.291712 242.360747 
L 141.319642 244.59356 
L 151.351142 247.440825 
L 161.379072 248.903909 
L 171.407002 248.792541 
L 181.434931 246.734165 
L 191.462861 241.728997 
L 201.49079 233.668199 
L 211.51872 223.876874 
L 221.54665 214.775045 
L 231.970982 214.634671 
L 242.391744 214.573332 
L 252.812506 217.732614 
L 263.233267 222.211412 
L 273.6576 227.882658 
L 284.078362 234.372065 
L 294.499123 240.923609 
L 304.919885 246.527396 
L 315.344218 250.249105 
L 325.764979 251.539615 
L 336.185741 253.188445 
L 346.610074 257.318637 
L 357.030835 262.18822 
L 367.451597 265.507036 
L 377.872358 265.138737 
L 390.157286 261.41104 
L 402.438643 253.500329 
L 414.72 249.810952 
" style="fill:none;stroke:#0000ff;stroke-linecap:square;stroke-width:1.5;"/>
   </g>
   <g id="line2d_39">
    <path clip-path="url(#pfb5493c948)" d="M 57.6 243.954226 
L 68.127898 245.609442 
L 78.655795 243.686783 
L 89.183693 240.708857 
L 99.71159 236.129335 
L 110.235917 238.067828 
L 120.763814 238.808551 
L 131.291712 237.33123 
L 141.319642 226.978143 
L 151.351142 218.007641 
L 161.379072 207.911351 
L 171.407002 206.84198 
L 181.434931 208.50824 
L 191.462861 209.956821 
L 201.49079 211.066774 
L 211.51872 211.760794 
L 221.54665 211.99657 
L 231.970982 212.632577 
L 242.391744 214.541532 
L 252.812506 217.732614 
L 263.233267 222.211412 
L 273.6576 227.882658 
L 284.078362 234.371932 
L 294.499123 240.923609 
L 304.919885 237.584702 
L 315.344218 224.958486 
L 325.764979 219.37825 
L 336.185741 219.920587 
L 346.610074 222.673781 
L 357.030835 229.495829 
L 367.451597 238.670705 
L 377.872358 243.954226 
L 390.157286 240.96153 
L 402.438643 234.970684 
L 414.72 234.018934 
" style="fill:none;stroke:#0000ff;stroke-linecap:square;stroke-width:1.5;"/>
   </g>
   <g id="line2d_40">
    <path clip-path="url(#pfb5493c948)" d="M 57.6 243.954226 
L 68.127898 240.480799 
L 78.655795 237.290648 
L 89.183693 235.625186 
L 99.71159 233.466619 
L 110.235917 225.484989 
L 120.763814 228.24151 
L 131.291712 230.975544 
L 141.319642 226.683557 
L 151.351142 218.007641 
L 161.379072 207.911351 
L 171.407002 198.136126 
L 181.434931 191.405089 
L 191.462861 190.573622 
L 201.49079 195.256794 
L 211.51872 203.377468 
L 221.54665 211.99657 
L 231.970982 212.632577 
L 242.391744 214.541532 
L 252.812506 215.677298 
L 263.233267 219.197028 
L 273.6576 224.646736 
L 284.078362 229.008045 
L 294.499123 229.498889 
L 304.919885 226.473595 
L 315.344218 222.003977 
L 325.764979 219.378117 
L 336.185741 219.920454 
L 346.610074 222.673781 
L 357.030835 229.495829 
L 367.451597 238.670705 
L 377.872358 243.954226 
L 390.157286 239.117906 
L 402.438643 234.742892 
L 414.72 232.112508 
" style="fill:none;stroke:#0000ff;stroke-linecap:square;stroke-width:1.5;"/>
   </g>
   <g id="line2d_41">
    <path clip-path="url(#pfb5493c948)" d="M 57.6 209.809661 
L 68.127898 215.267219 
L 78.655795 219.620279 
L 89.183693 221.723628 
L 99.71159 222.010098 
L 110.235917 223.095569 
L 120.763814 226.866376 
L 131.291712 230.975544 
L 141.319642 226.683557 
L 151.351142 212.458407 
L 161.379072 205.133541 
L 171.407002 198.136126 
L 181.434931 191.405089 
L 191.462861 190.573622 
L 201.49079 195.256794 
L 211.51872 203.377468 
L 221.54665 211.99657 
L 231.970982 197.906871 
L 242.391744 182.409971 
L 252.812506 167.189695 
L 263.233267 163.940202 
L 273.6576 167.666701 
L 284.078362 174.733971 
L 294.499123 179.890556 
L 304.919885 188.028128 
L 315.344218 193.871282 
L 325.764979 192.190785 
L 336.185741 196.693267 
L 346.610074 203.227115 
L 357.030835 207.550636 
L 367.451597 209.343965 
L 377.872358 209.809661 
L 390.157286 212.227156 
L 402.438643 208.708756 
L 414.72 204.70244 
" style="fill:none;stroke:#0000ff;stroke-linecap:square;stroke-width:1.5;"/>
   </g>
   <g id="line2d_42">
    <path clip-path="url(#pfb5493c948)" d="M 57.6 209.809395 
L 68.127898 204.941674 
L 78.655795 203.203165 
L 89.183693 206.35912 
L 99.71159 212.272395 
L 110.235917 215.641373 
L 120.763814 207.776299 
L 131.291712 202.162667 
L 141.319642 202.548529 
L 151.351142 203.614308 
L 161.379072 196.801308 
L 171.407002 180.821948 
L 181.434931 165.459967 
L 191.462861 154.186798 
L 201.49079 145.058757 
L 211.51872 137.677476 
L 221.54665 134.842185 
L 231.970982 139.389906 
L 242.391744 149.051635 
L 252.812506 158.309671 
L 263.233267 158.896581 
L 273.6576 167.666701 
L 284.078362 174.733971 
L 294.499123 179.890556 
L 304.919885 183.30464 
L 315.344218 185.229561 
L 325.764979 192.190785 
L 336.185741 196.693001 
L 346.610074 203.226982 
L 357.030835 207.550503 
L 367.451597 209.343699 
L 377.872358 209.809395 
L 390.157286 206.466496 
L 402.438643 205.017117 
L 414.72 204.114199 
" style="fill:none;stroke:#0000ff;stroke-linecap:square;stroke-width:1.5;"/>
   </g>
   <g id="line2d_43">
    <path clip-path="url(#pfb5493c948)" d="M 57.6 164.651918 
L 68.127898 169.353851 
L 78.655795 171.809001 
L 89.183693 169.282134 
L 99.71159 164.336709 
L 110.235917 166.77975 
L 120.763814 168.461179 
L 131.291712 169.052346 
L 141.319642 168.864205 
L 151.351142 168.306301 
L 161.379072 167.337787 
L 171.407002 165.574928 
L 181.434931 161.64299 
L 191.462861 154.186798 
L 201.49079 145.058757 
L 211.51872 137.677476 
L 221.54665 134.842185 
L 231.970982 136.233818 
L 242.391744 141.094886 
L 252.812506 149.374295 
L 263.233267 158.896448 
L 273.6576 165.502945 
L 284.078362 170.021659 
L 294.499123 179.512943 
L 304.919885 183.30464 
L 315.344218 185.229561 
L 325.764979 185.849735 
L 336.185741 182.02025 
L 346.610074 176.254934 
L 357.030835 170.58901 
L 367.451597 166.282919 
L 377.872358 164.651918 
L 390.157286 170.492678 
L 402.438643 179.246432 
L 414.72 185.107815 
" style="fill:none;stroke:#0000ff;stroke-linecap:square;stroke-width:1.5;"/>
   </g>
   <g id="line2d_44">
    <path clip-path="url(#pfb5493c948)" d="M 57.6 164.651785 
L 68.127898 161.13618 
L 78.655795 160.334517 
L 89.183693 161.820354 
L 99.71159 163.258689 
L 110.235917 156.800816 
L 120.763814 162.590216 
L 131.291712 169.052346 
L 141.319642 168.864205 
L 151.351142 168.306301 
L 161.379072 167.337787 
L 171.407002 165.574928 
L 181.434931 161.64299 
L 191.462861 152.071341 
L 201.49079 142.223467 
L 211.51872 136.596795 
L 221.54665 134.842052 
L 231.970982 136.233685 
L 242.391744 141.094753 
L 252.812506 149.374295 
L 263.233267 152.964412 
L 273.6576 160.306043 
L 284.078362 165.367627 
L 294.499123 167.007808 
L 304.919885 172.956476 
L 315.344218 182.705356 
L 325.764979 185.849735 
L 336.185741 182.019984 
L 346.610074 176.254668 
L 357.030835 170.588877 
L 367.451597 166.282653 
L 377.872358 164.651785 
L 390.157286 162.651022 
L 402.438643 164.514472 
L 414.72 166.133364 
" style="fill:none;stroke:#0000ff;stroke-linecap:square;stroke-width:1.5;"/>
   </g>
   <g id="line2d_45">
    <path clip-path="url(#pfb5493c948)" d="M 57.6 128.403871 
L 68.127898 129.619471 
L 78.655795 131.20643 
L 89.183693 133.609022 
L 99.71159 139.013225 
L 110.235917 149.512807 
L 120.763814 151.203283 
L 131.291712 149.50163 
L 141.319642 149.041123 
L 151.351142 147.698056 
L 161.379072 145.591913 
L 171.407002 142.94157 
L 181.434931 140.090978 
L 191.462861 137.51528 
L 201.49079 135.721552 
L 211.51872 134.910975 
L 221.54665 134.692364 
L 231.970982 135.476064 
L 242.391744 138.181092 
L 252.812506 143.425229 
L 263.233267 151.111342 
L 273.6576 140.826512 
L 284.078362 131.901515 
L 294.499123 131.079761 
L 304.919885 130.685117 
L 315.344218 129.691854 
L 325.764979 128.125518 
L 336.185741 127.40196 
L 346.610074 126.332988 
L 357.030835 127.16512 
L 367.451597 128.06072 
L 377.872358 128.403871 
L 390.157286 129.779937 
L 402.438643 132.794986 
L 414.72 134.524314 
" style="fill:none;stroke:#0000ff;stroke-linecap:square;stroke-width:1.5;"/>
   </g>
   <g id="line2d_46">
    <path clip-path="url(#pfb5493c948)" d="M 57.6 128.403738 
L 68.127898 128.039697 
L 78.655795 128.899904 
L 89.183693 130.592377 
L 99.71159 132.368275 
L 110.235917 133.647076 
L 120.763814 134.534161 
L 131.291712 134.903524 
L 141.319642 133.812199 
L 151.351142 130.63735 
L 161.379072 125.630452 
L 171.407002 119.482999 
L 181.434931 116.876033 
L 191.462861 117.106752 
L 201.49079 120.123131 
L 211.51872 121.739762 
L 221.54665 122.262805 
L 231.970982 122.838405 
L 242.391744 124.445322 
L 252.812506 126.576746 
L 263.233267 128.544379 
L 273.6576 130.000144 
L 284.078362 130.852501 
L 294.499123 126.337778 
L 304.919885 123.097332 
L 315.344218 125.933554 
L 325.764979 128.125518 
L 336.185741 127.40196 
L 346.610074 126.332855 
L 357.030835 127.164987 
L 367.451597 128.060587 
L 377.872358 128.403738 
L 390.157286 127.546991 
L 402.438643 126.732688 
L 414.72 126.391266 
" style="fill:none;stroke:#0000ff;stroke-linecap:square;stroke-width:1.5;"/>
   </g>
   <g id="line2d_47">
    <path clip-path="url(#pfb5493c948)" d="M 57.6 107.771809 
L 68.127898 110.422018 
L 78.655795 116.159393 
L 89.183693 121.192502 
L 99.71159 124.653954 
L 110.235917 126.062352 
L 120.763814 125.303401 
L 131.291712 124.419243 
L 141.319642 124.117339 
L 151.351142 123.203644 
L 161.379072 121.659662 
L 171.407002 119.482999 
L 181.434931 116.876033 
L 191.462861 116.162586 
L 201.49079 119.362982 
L 211.51872 121.578365 
L 221.54665 122.262805 
L 231.970982 120.982806 
L 242.391744 117.389363 
L 252.812506 112.416129 
L 263.233267 107.647002 
L 273.6576 106.075744 
L 284.078362 112.075239 
L 294.499123 118.094293 
L 304.919885 122.785316 
L 315.344218 120.976819 
L 325.764979 119.179365 
L 336.185741 121.54723 
L 346.610074 122.542622 
L 357.030835 118.863889 
L 367.451597 112.864793 
L 377.872358 107.771809 
L 390.157286 114.222098 
L 402.438643 118.674418 
L 414.72 119.97677 
" style="fill:none;stroke:#0000ff;stroke-linecap:square;stroke-width:1.5;"/>
   </g>
   <g id="line2d_48">
    <path clip-path="url(#pfb5493c948)" d="M 57.6 107.771809 
L 68.127898 108.127335 
L 78.655795 111.855963 
L 89.183693 115.512874 
L 99.71159 120.293044 
L 110.235917 123.671868 
L 120.763814 124.458761 
L 131.291712 124.419243 
L 141.319642 124.117339 
L 151.351142 123.203511 
L 161.379072 121.659662 
L 171.407002 119.107116 
L 181.434931 112.64086 
L 191.462861 116.162586 
L 201.49079 119.362982 
L 211.51872 121.578365 
L 221.54665 122.262805 
L 231.970982 120.982806 
L 242.391744 117.38923 
L 252.812506 112.416129 
L 263.233267 107.647002 
L 273.6576 104.991737 
L 284.078362 108.894535 
L 294.499123 112.217343 
L 304.919885 114.984242 
L 315.344218 117.261762 
L 325.764979 119.179099 
L 336.185741 121.547097 
L 346.610074 122.542622 
L 357.030835 118.863889 
L 367.451597 112.86466 
L 377.872358 107.771809 
L 390.157286 108.241497 
L 402.438643 109.418111 
L 414.72 109.891391 
" style="fill:none;stroke:#0000ff;stroke-linecap:square;stroke-width:1.5;"/>
   </g>
   <g id="line2d_49">
    <path clip-path="url(#pfb5493c948)" d="M 57.6 100.973579 
L 68.127898 104.096669 
L 78.655795 99.555335 
L 89.183693 98.948866 
L 99.71159 103.65479 
L 110.235917 103.140529 
L 120.763814 99.054379 
L 131.291712 93.922276 
L 141.319642 95.107007 
L 151.351142 97.84663 
L 161.379072 101.815025 
L 171.407002 107.189423 
L 181.434931 111.397585 
L 191.462861 108.715309 
L 201.49079 104.900594 
L 211.51872 98.223977 
L 221.54665 92.963341 
L 231.970982 98.432209 
L 242.391744 103.910258 
L 252.812506 104.374889 
L 263.233267 101.074036 
L 273.6576 103.24072 
L 284.078362 103.516811 
L 294.499123 107.743734 
L 304.919885 111.123623 
L 315.344218 113.245733 
L 325.764979 113.966231 
L 336.185741 110.256896 
L 346.610074 105.544452 
L 357.030835 102.679357 
L 367.451597 101.357445 
L 377.872358 100.973579 
L 390.157286 103.655855 
L 402.438643 100.629629 
L 414.72 97.028601 
" style="fill:none;stroke:#0000ff;stroke-linecap:square;stroke-width:1.5;"/>
   </g>
   <g id="line2d_50">
    <path clip-path="url(#pfb5493c948)" d="M 57.6 100.973579 
L 68.127898 103.076928 
L 78.655795 99.213647 
L 89.183693 92.875658 
L 99.71159 89.382272 
L 110.235917 89.348476 
L 120.763814 89.976234 
L 131.291712 90.509789 
L 141.319642 91.169081 
L 151.351142 93.789087 
L 161.379072 97.431628 
L 171.407002 99.761039 
L 181.434931 104.767671 
L 191.462861 108.715309 
L 201.49079 104.900594 
L 211.51872 98.223977 
L 221.54665 92.963341 
L 231.970982 98.432209 
L 242.391744 103.910258 
L 252.812506 104.374889 
L 263.233267 100.793155 
L 273.6576 103.24072 
L 284.078362 103.516811 
L 294.499123 107.743734 
L 304.919885 111.123623 
L 315.344218 113.245733 
L 325.764979 113.966231 
L 336.185741 110.256763 
L 346.610074 105.544452 
L 357.030835 102.679357 
L 367.451597 101.357445 
L 377.872358 100.973579 
L 390.157286 98.411719 
L 402.438643 95.719596 
L 414.72 94.744163 
" style="fill:none;stroke:#0000ff;stroke-linecap:square;stroke-width:1.5;"/>
   </g>
   <g id="line2d_51">
    <path clip-path="url(#pfb5493c948)" d="M 57.6 100.604481 
L 68.127898 94.410725 
L 78.655795 91.490545 
L 89.183693 92.067875 
L 99.71159 86.706782 
L 110.235917 83.299218 
L 120.763814 87.837226 
L 131.291712 89.93991 
L 141.319642 89.761482 
L 151.351142 89.559636 
L 161.379072 90.939959 
L 171.407002 96.746922 
L 181.434931 104.767538 
L 191.462861 102.879872 
L 201.49079 95.47158 
L 211.51872 93.39258 
L 221.54665 92.963208 
L 231.970982 93.421852 
L 242.391744 94.823997 
L 252.812506 97.327179 
L 263.233267 100.793022 
L 273.6576 99.639692 
L 284.078362 98.581232 
L 294.499123 94.340338 
L 304.919885 90.777364 
L 315.344218 88.395529 
L 325.764979 87.556212 
L 336.185741 86.402084 
L 346.610074 84.099417 
L 357.030835 87.273734 
L 367.451597 94.762259 
L 377.872358 100.604481 
L 390.157286 96.512477 
L 402.438643 90.515111 
L 414.72 87.85918 
" style="fill:none;stroke:#0000ff;stroke-linecap:square;stroke-width:1.5;"/>
   </g>
   <g id="line2d_52">
    <path clip-path="url(#pfb5493c948)" d="M 57.6 100.604348 
L 68.127898 94.177877 
L 78.655795 87.498732 
L 89.183693 82.803451 
L 99.71159 81.066405 
L 110.235917 82.497689 
L 120.763814 84.317496 
L 131.291712 89.93991 
L 141.319642 89.761482 
L 151.351142 89.559636 
L 161.379072 90.939959 
L 171.407002 96.746922 
L 181.434931 100.205713 
L 191.462861 98.558878 
L 201.49079 94.142883 
L 211.51872 86.509194 
L 221.54665 83.076748 
L 231.970982 85.459914 
L 242.391744 90.325107 
L 252.812506 95.565118 
L 263.233267 100.523849 
L 273.6576 99.639692 
L 284.078362 98.581232 
L 294.499123 94.340205 
L 304.919885 90.777364 
L 315.344218 88.395396 
L 325.764979 87.556079 
L 336.185741 86.401951 
L 346.610074 84.099284 
L 357.030835 87.273601 
L 367.451597 94.762126 
L 377.872358 100.604348 
L 390.157286 93.043042 
L 402.438643 86.332496 
L 414.72 83.786203 
" style="fill:none;stroke:#0000ff;stroke-linecap:square;stroke-width:1.5;"/>
   </g>
   <g id="line2d_53">
    <path clip-path="url(#pfb5493c948)" d="M 57.6 68.266551 
L 68.127898 70.931796 
L 78.655795 73.288218 
L 89.183693 72.638106 
L 99.71159 66.81837 
L 110.235917 63.287063 
L 120.763814 65.822712 
L 131.291712 65.177922 
L 141.319642 65.74035 
L 151.351142 66.400175 
L 161.379072 71.090798 
L 171.407002 74.565023 
L 181.434931 73.944184 
L 191.462861 73.25522 
L 201.49079 75.34034 
L 211.51872 78.747372 
L 221.54665 83.076748 
L 231.970982 80.263279 
L 242.391744 81.811386 
L 252.812506 83.099368 
L 263.233267 83.082337 
L 273.6576 85.121952 
L 284.078362 88.533774 
L 294.499123 89.407553 
L 304.919885 86.844362 
L 315.344218 81.197998 
L 325.764979 74.116225 
L 336.185741 74.865064 
L 346.610074 76.313512 
L 357.030835 73.591452 
L 367.451597 69.70808 
L 377.872358 68.266551 
L 390.157286 71.598939 
L 402.438643 74.766071 
L 414.72 75.637055 
" style="fill:none;stroke:#0000ff;stroke-linecap:square;stroke-width:1.5;"/>
   </g>
   <g id="line2d_54">
    <path clip-path="url(#pfb5493c948)" d="M 57.6 68.266551 
L 68.127898 67.856606 
L 78.655795 69.791905 
L 89.183693 66.342694 
L 99.71159 61.043739 
L 110.235917 57.648815 
L 120.763814 53.700246 
L 131.291712 53.79405 
L 141.319642 56.217399 
L 151.351142 63.108768 
L 161.379072 71.090798 
L 171.407002 74.565023 
L 181.434931 73.944184 
L 191.462861 73.25522 
L 201.49079 75.34034 
L 211.51872 78.747372 
L 221.54665 83.076748 
L 231.970982 78.787023 
L 242.391744 76.512031 
L 252.812506 78.725285 
L 263.233267 83.082337 
L 273.6576 81.354205 
L 284.078362 73.538762 
L 294.499123 65.7961 
L 304.919885 65.062563 
L 315.344218 67.996714 
L 325.764979 74.116225 
L 336.185741 74.865064 
L 346.610074 76.313512 
L 357.030835 73.591452 
L 367.451597 69.707947 
L 377.872358 68.266551 
L 390.157286 67.714768 
L 402.438643 70.028479 
L 414.72 72.402464 
" style="fill:none;stroke:#0000ff;stroke-linecap:square;stroke-width:1.5;"/>
   </g>
   <g id="line2d_55">
    <path clip-path="url(#pfb5493c948)" d="M 57.6 32.694562 
L 68.127898 41.125655 
L 78.655795 45.721276 
L 89.183693 47.395254 
L 99.71159 50.246245 
L 110.235917 50.898618 
L 120.763814 52.450983 
L 131.291712 53.79405 
L 141.319642 56.217266 
L 151.351142 63.108768 
L 161.379072 66.181963 
L 171.407002 65.33586 
L 181.434931 64.194505 
L 191.462861 68.387898 
L 201.49079 72.791786 
L 211.51872 77.796022 
L 221.54665 79.566864 
L 231.970982 78.787023 
L 242.391744 76.000298 
L 252.812506 78.725285 
L 263.233267 82.951676 
L 273.6576 81.354205 
L 284.078362 71.937965 
L 294.499123 63.360244 
L 304.919885 51.143708 
L 315.344218 38.903088 
L 325.764979 28.523522 
L 336.185741 32.732882 
L 346.610074 37.562815 
L 357.030835 38.83789 
L 367.451597 36.513269 
L 377.872358 32.694562 
L 390.157286 42.227359 
L 402.438643 51.672472 
L 414.72 56.180676 
" style="fill:none;stroke:#0000ff;stroke-linecap:square;stroke-width:1.5;"/>
   </g>
   <g id="line2d_56">
    <path clip-path="url(#pfb5493c948)" d="M 57.6 32.694429 
L 68.127898 33.214944 
L 78.655795 35.527324 
L 89.183693 39.924426 
L 99.71159 44.308222 
L 110.235917 46.575496 
L 120.763814 41.358237 
L 131.291712 35.907598 
L 141.319642 38.515629 
L 151.351142 44.435556 
L 161.379072 50.521538 
L 171.407002 56.286721 
L 181.434931 61.817061 
L 191.462861 67.088873 
L 201.49079 72.281782 
L 211.51872 77.796022 
L 221.54665 79.566864 
L 231.970982 76.40226 
L 242.391744 76.000298 
L 252.812506 77.701419 
L 263.233267 80.580884 
L 273.6576 80.115188 
L 284.078362 71.937832 
L 294.499123 59.614718 
L 304.919885 46.249775 
L 315.344218 32.935526 
L 325.764979 28.523522 
L 336.185741 32.732882 
L 346.610074 37.562815 
L 357.030835 38.83789 
L 367.451597 36.513136 
L 377.872358 32.694429 
L 390.157286 32.922354 
L 402.438643 31.12663 
L 414.72 29.719696 
" style="fill:none;stroke:#0000ff;stroke-linecap:square;stroke-width:1.5;"/>
   </g>
   <g id="line2d_57">
    <path clip-path="url(#pfb5493c948)" d="M 57.6 32.235252 
L 68.127898 33.0441 
L 78.655795 34.478577 
L 89.183693 36.88862 
L 99.71159 40.149157 
L 110.235917 40.197856 
L 120.763814 37.181609 
L 131.291712 35.907598 
L 141.319642 38.515629 
L 151.351142 44.435556 
L 161.379072 50.521538 
L 171.407002 56.286721 
L 181.434931 61.817061 
L 191.462861 67.088873 
L 201.49079 72.281782 
L 211.51872 72.925507 
L 221.54665 72.088186 
L 231.970982 73.456001 
L 242.391744 73.702421 
L 252.812506 76.160764 
L 263.233267 76.153978 
L 273.6576 72.802031 
L 284.078362 68.901761 
L 294.499123 59.614718 
L 304.919885 46.249775 
L 315.344218 32.935393 
L 325.764979 23.86909 
L 336.185741 21.756427 
L 346.610074 21.274898 
L 357.030835 23.599253 
L 367.451597 27.869818 
L 377.872358 32.235252 
L 390.157286 29.381068 
L 402.438643 28.889559 
L 414.72 26.517836 
" style="fill:none;stroke:#0000ff;stroke-linecap:square;stroke-width:1.5;"/>
   </g>
   <g id="line2d_58">
    <path clip-path="url(#pfb5493c948)" d="M 57.6 32.235252 
L 68.127898 25.463234 
L 78.655795 25.331509 
L 89.183693 28.024163 
L 99.71159 29.283671 
L 110.235917 28.049045 
L 120.763814 24.785048 
L 131.291712 21.83014 
L 141.319642 28.366649 
L 151.351142 35.461062 
L 161.379072 42.057846 
L 171.407002 50.50118 
L 181.434931 60.343332 
L 191.462861 62.363522 
L 201.49079 61.803888 
L 211.51872 63.308485 
L 221.54665 64.49601 
L 231.970982 63.953541 
L 242.391744 59.796738 
L 252.812506 57.361148 
L 263.233267 54.073867 
L 273.6576 48.66514 
L 284.078362 41.806237 
L 294.499123 33.67718 
L 304.919885 24.424466 
L 315.344218 21.591305 
L 325.764979 23.86909 
L 336.185741 21.756427 
L 346.610074 21.274898 
L 357.030835 23.599253 
L 367.451597 27.869818 
L 377.872358 32.235252 
L 390.157286 28.434774 
L 402.438643 27.815531 
L 414.72 25.836856 
" style="fill:none;stroke:#0000ff;stroke-linecap:square;stroke-width:1.5;"/>
   </g>
   <g id="line2d_59">
    <path clip-path="url(#pfb5493c948)" d="M 57.6 16.325081 
L 68.127898 21.227263 
L 78.655795 22.963511 
L 89.183693 25.47175 
L 99.71159 27.054451 
L 110.235917 26.892788 
L 120.763814 24.686453 
L 131.291712 21.830007 
L 141.319642 28.366649 
L 151.351142 35.461062 
L 161.379072 42.057846 
L 171.407002 48.849157 
L 181.434931 55.375554 
L 191.462861 60.138027 
L 201.49079 61.803888 
L 211.51872 63.308485 
L 221.54665 64.49601 
L 231.970982 61.605768 
L 242.391744 56.223386 
L 252.812506 57.361148 
L 263.233267 54.073867 
L 273.6576 48.66514 
L 284.078362 41.806237 
L 294.499123 33.67718 
L 304.919885 24.424466 
L 315.344218 19.905086 
L 325.764979 19.626733 
L 336.185741 20.252229 
L 346.610074 19.729053 
L 357.030835 17.71565 
L 367.451597 16.502578 
L 377.872358 16.325081 
L 390.157286 19.585885 
L 402.438643 21.273434 
L 414.72 24.48647 
" style="fill:none;stroke:#0000ff;stroke-linecap:square;stroke-width:1.5;"/>
   </g>
   <g id="line2d_60">
    <path clip-path="url(#pfb5493c948)" d="M 57.6 16.325081 
L 68.127898 15.926845 
L 78.655795 19.674899 
L 89.183693 24.764424 
L 99.71159 26.275009 
L 110.235917 23.740558 
L 120.763814 18.752422 
L 131.291712 16.457339 
L 141.319642 21.136918 
L 151.351142 29.654764 
L 161.379072 39.882247 
L 171.407002 48.849157 
L 181.434931 55.375554 
L 191.462861 60.138027 
L 201.49079 59.159533 
L 211.51872 52.689419 
L 221.54665 46.946057 
L 231.970982 49.305672 
L 242.391744 56.223386 
L 252.812506 52.409469 
L 263.233267 43.044057 
L 273.6576 32.849173 
L 284.078362 25.370095 
L 294.499123 20.612944 
L 304.919885 19.011881 
L 315.344218 17.896606 
L 325.764979 19.6266 
L 336.185741 20.252229 
L 346.610074 19.729053 
L 357.030835 17.71565 
L 367.451597 16.502578 
L 377.872358 16.325081 
L 390.157286 14.344942 
L 402.438643 19.997294 
L 414.72 23.376783 
" style="fill:none;stroke:#0000ff;stroke-linecap:square;stroke-width:1.5;"/>
   </g>
   <g id="line2d_61">
    <path clip-path="url(#pfb5493c948)" d="M 57.6 11.143881 
L 68.127898 13.26639 
L 78.655795 18.72621 
L 89.183693 19.7224 
L 99.71159 18.972497 
L 110.235917 16.977721 
L 120.763814 14.765133 
L 131.291712 14.111828 
L 141.319642 14.988534 
L 151.351142 19.779747 
L 161.379072 26.266493 
L 171.407002 32.891352 
L 181.434931 38.725591 
L 191.462861 43.215699 
L 201.49079 45.558283 
L 211.51872 44.42265 
L 221.54665 43.736746 
L 231.970982 49.305672 
L 242.391744 55.256202 
L 252.812506 47.674405 
L 263.233267 39.745865 
L 273.6576 32.073856 
L 284.078362 23.520084 
L 294.499123 18.200373 
L 304.919885 18.456771 
L 315.344218 14.650572 
L 325.764979 12.341651 
L 336.185741 10.636538 
L 346.610074 12.601908 
L 357.030835 14.408942 
L 367.451597 12.356686 
L 377.872358 11.143881 
L 390.157286 13.114573 
L 402.438643 16.893896 
L 414.72 21.760685 
" style="fill:none;stroke:#0000ff;stroke-linecap:square;stroke-width:1.5;"/>
   </g>
   <g id="line2d_62">
    <path clip-path="url(#pfb5493c948)" d="M 57.6 11.143881 
L 68.127898 6.997457 
L 78.655795 6.748376 
L 89.183693 6.24396 
L 99.71159 8.935816 
L 110.235917 11.567797 
L 120.763814 13.270116 
L 131.291712 14.111828 
L 141.319642 14.988534 
L 151.351142 19.779747 
L 161.379072 26.266493 
L 171.407002 32.891352 
L 181.434931 38.725591 
L 191.462861 43.215699 
L 201.49079 45.558283 
L 211.51872 44.42265 
L 221.54665 43.736746 
L 231.970982 48.625623 
L 242.391744 44.405752 
L 252.812506 33.595484 
L 263.233267 23.697581 
L 273.6576 16.799825 
L 284.078362 13.088228 
L 294.499123 13.30817 
L 304.919885 15.536591 
L 315.344218 14.650572 
L 325.764979 12.341651 
L 336.185741 10.636538 
L 346.610074 12.601908 
L 357.030835 14.408942 
L 367.451597 12.356686 
L 377.872358 11.143881 
L 390.157286 9.186228 
L 402.438643 12.055713 
L 414.72 12.963954 
" style="fill:none;stroke:#0000ff;stroke-linecap:square;stroke-width:1.5;"/>
   </g>
   <g id="line2d_63">
    <path clip-path="url(#pfb5493c948)" d="M 57.6 3.93025 
L 68.127898 6.642729 
L 78.655795 4.441318 
L 89.183693 5.633499 
L 99.71159 5.327604 
L 110.235917 6.89181 
L 120.763814 10.759748 
L 131.291712 12.320761 
L 141.319642 8.065231 
L 151.351142 4.041617 
L 161.379072 4.021792 
L 171.407002 8.765239 
L 181.434931 16.924632 
L 191.462861 26.471666 
L 201.49079 35.460397 
L 211.51872 41.989987 
L 221.54665 43.736746 
L 231.970982 41.962844 
L 242.391744 37.105368 
L 252.812506 30.011088 
L 263.233267 21.306831 
L 273.6576 11.346259 
L 284.078362 0.311659 
L 285.747123 -1 
M 310.987806 -1 
L 315.344218 3.839372 
L 325.764979 8.537314 
L 336.185741 9.406568 
L 346.610074 8.415567 
L 357.030835 8.461871 
L 367.451597 8.068956 
L 377.872358 3.93025 
L 390.157286 7.898113 
L 402.438643 4.702906 
L 414.72 0.389762 
" style="fill:none;stroke:#0000ff;stroke-linecap:square;stroke-width:1.5;"/>
   </g>
   <g id="line2d_64">
    <path clip-path="url(#pfb5493c948)" d="M 57.6 3.930117 
L 68.127898 2.794484 
L 78.655795 2.571482 
L 89.183693 2.18043 
L 99.71159 2.514401 
L 110.235917 4.043879 
L 120.763814 7.929913 
L 131.291712 12.320628 
L 141.319642 5.813391 
L 149.900753 -1 
M 171.357742 -1 
L 171.407002 -0.979517 
L 181.434931 9.061687 
L 191.462861 21.718772 
L 201.49079 33.602403 
L 211.51872 41.327634 
L 221.54665 41.834178 
L 231.970982 39.757174 
L 242.391744 29.084753 
L 252.812506 18.314268 
L 263.233267 3.660412 
L 266.787874 -1 
M 310.987806 -1 
L 315.344218 3.839372 
L 325.764979 8.537314 
L 336.185741 9.406568 
L 346.610074 8.415567 
L 357.030835 8.461871 
L 367.451597 8.068823 
L 377.872358 3.930117 
L 390.157286 6.962862 
L 402.438643 -0.262212 
L 406.797286 -1 
" style="fill:none;stroke:#0000ff;stroke-linecap:square;stroke-width:1.5;"/>
   </g>
   <g id="line2d_65">
    <path clip-path="url(#pfb5493c948)" d="M 57.6 1.075932 
L 68.127898 1.907931 
L 77.34242 -1 
M 109.439315 -1 
L 110.235917 -0.638494 
L 120.763814 6.838055 
L 131.291712 11.700986 
L 141.319642 5.813391 
L 149.900753 -1 
M 171.357742 -1 
L 171.407002 -0.979517 
L 181.434931 9.061687 
L 191.462861 21.718772 
L 201.49079 33.602403 
L 211.51872 41.327634 
L 221.54665 41.834178 
L 231.970982 39.757174 
L 242.391744 29.084753 
L 252.812506 14.801856 
L 263.233267 -0.197014 
L 264.0232 -1 
M 374.086666 -1 
L 377.872358 1.075932 
L 390.157286 -0.116249 
L 396.279938 -1 
" style="fill:none;stroke:#0000ff;stroke-linecap:square;stroke-width:1.5;"/>
   </g>
   <g id="line2d_66">
    <path clip-path="url(#pfb5493c948)" d="M 57.6 1.075932 
L 62.394246 -1 
M 175.852233 -1 
L 181.434931 3.972828 
L 191.462861 17.238777 
L 201.49079 29.675521 
L 211.51872 39.552933 
L 221.54665 41.834178 
L 231.970982 37.049352 
L 242.391744 28.936395 
L 252.812506 14.801723 
L 263.233267 -0.197014 
L 263.868333 -1 
M 374.086754 -1 
L 377.872358 1.075932 
L 381.027763 -1 
" style="fill:none;stroke:#0000ff;stroke-linecap:square;stroke-width:1.5;"/>
   </g>
   <g id="line2d_67">
    <path clip-path="url(#pfb5493c948)" d="M 175.852233 -1 
L 181.434931 3.972828 
L 191.462861 13.229267 
L 201.49079 22.137766 
L 211.51872 30.113675 
L 221.54665 34.746551 
L 231.970982 29.745509 
L 242.391744 18.596746 
L 252.812506 5.930081 
L 259.439462 -1 
" style="fill:none;stroke:#0000ff;stroke-linecap:square;stroke-width:1.5;"/>
   </g>
   <g id="line2d_68">
    <path clip-path="url(#pfb5493c948)" d="M 178.10539 -1 
L 181.434931 3.645377 
L 191.462861 13.229267 
L 201.49079 22.137766 
L 211.51872 30.113675 
L 221.54665 34.746551 
L 231.970982 25.794012 
L 242.391744 13.370041 
L 252.812506 0.653746 
L 254.246619 -1 
" style="fill:none;stroke:#0000ff;stroke-linecap:square;stroke-width:1.5;"/>
   </g>
   <g id="line2d_69">
    <path clip-path="url(#pfb5493c948)" d="M 196.967424 -1 
L 201.49079 5.8891 
L 211.51872 22.545449 
L 221.54665 34.746551 
L 231.970982 25.794012 
L 242.391744 13.370041 
L 252.812506 0.653746 
L 254.246603 -1 
" style="fill:none;stroke:#0000ff;stroke-linecap:square;stroke-width:1.5;"/>
   </g>
   <g id="line2d_70">
    <path clip-path="url(#pfb5493c948)" style="fill:none;stroke:#0000ff;stroke-linecap:square;stroke-width:1.5;"/>
   </g>
   <g id="line2d_71">
    <path clip-path="url(#pfb5493c948)" style="fill:none;stroke:#0000ff;stroke-linecap:square;stroke-width:1.5;"/>
   </g>
   <g id="line2d_72">
    <path clip-path="url(#pfb5493c948)" style="fill:none;stroke:#0000ff;stroke-linecap:square;stroke-width:1.5;"/>
   </g>
   <g id="line2d_73">
    <path clip-path="url(#pfb5493c948)" style="fill:none;stroke:#0000ff;stroke-linecap:square;stroke-width:1.5;"/>
   </g>
   <g id="line2d_74">
    <path clip-path="url(#pfb5493c948)" d="M 129.024 307.584 
L 129.024 41.472 
" style="fill:none;stroke:#808080;stroke-dasharray:5.55,2.4;stroke-dashoffset:0;stroke-width:1.5;"/>
   </g>
   <g id="line2d_75">
    <path clip-path="url(#pfb5493c948)" d="M 200.448 307.584 
L 200.448 41.472 
" style="fill:none;stroke:#808080;stroke-dasharray:5.55,2.4;stroke-dashoffset:0;stroke-width:1.5;"/>
   </g>
   <g id="line2d_76">
    <path clip-path="url(#pfb5493c948)" d="M 271.872 307.584 
L 271.872 41.472 
" style="fill:none;stroke:#808080;stroke-dasharray:5.55,2.4;stroke-dashoffset:0;stroke-width:1.5;"/>
   </g>
   <g id="line2d_77">
    <path clip-path="url(#pfb5493c948)" d="M 307.584 307.584 
L 307.584 41.472 
" style="fill:none;stroke:#808080;stroke-dasharray:5.55,2.4;stroke-dashoffset:0;stroke-width:1.5;"/>
   </g>
   <g id="line2d_78">
    <path clip-path="url(#pfb5493c948)" d="M 343.296 307.584 
L 343.296 41.472 
" style="fill:none;stroke:#808080;stroke-dasharray:5.55,2.4;stroke-dashoffset:0;stroke-width:1.5;"/>
   </g>
   <g id="line2d_79">
    <path clip-path="url(#pfb5493c948)" d="M 57.6 174.528 
L 414.72 174.528 
" style="fill:none;stroke:#808080;stroke-dasharray:5.55,2.4;stroke-dashoffset:0;stroke-width:1.5;"/>
   </g>
   <g id="patch_3">
    <path d="M 57.6 307.584 
L 57.6 41.472 
" style="fill:none;stroke:#000000;stroke-linecap:square;stroke-linejoin:miter;stroke-width:0.8;"/>
   </g>
   <g id="patch_4">
    <path d="M 414.72 307.584 
L 414.72 41.472 
" style="fill:none;stroke:#000000;stroke-linecap:square;stroke-linejoin:miter;stroke-width:0.8;"/>
   </g>
   <g id="patch_5">
    <path d="M 57.6 307.584 
L 414.72 307.584 
" style="fill:none;stroke:#000000;stroke-linecap:square;stroke-linejoin:miter;stroke-width:0.8;"/>
   </g>
   <g id="patch_6">
    <path d="M 57.6 41.472 
L 414.72 41.472 
" style="fill:none;stroke:#000000;stroke-linecap:square;stroke-linejoin:miter;stroke-width:0.8;"/>
   </g>
  </g>
 </g>
 <defs>
  <clipPath id="pfb5493c948">
   <rect height="266.112" width="357.12" x="57.6" y="41.472"/>
  </clipPath>
 </defs>
</svg>
